<svg xmlns="http://www.w3.org/2000/svg" width="100" height="100" viewBox="-50 -50 150 150">
  <path fill="#00F0A0" stroke="none" d="
    M 0,50
    C 0,10 10,0 50,0
      90,0 100,10 100,50
      100,90 90,100 50,100
      10,100 0,90 0,50
    ">
  </path>
  <path fill="#000000" stroke="none" d="
    M 10,50
    C 10,18 18,10 50,10
      82,10 90,18 90,50
      90,82 82,90 50,90
      18,90 10,82 10,50
    ">
  </path>
  <path fill="none" stroke="white" d="
    M 20,50
    C 10,18 18,10 50,10
      82,10 90,18 90,50
      90,82 82,90 50,90
      18,90 10,82 10,50
    ">
  </path>
</svg>

